HIERARCHY
ROOT hip
{
  OFFSET 0 0 0
  CHANNELS 6 Xposition Yposition Zposition Zrotation Yrotation Xrotation
  JOINT abdomen
  {
    OFFSET 0 20.6881 -0.73152
    CHANNELS 3 Zrotation Xrotation Yrotation
    JOINT chest
    {
      OFFSET 0 11.7043 -0.48768
      CHANNELS 3 Zrotation Xrotation Yrotation
      JOINT neck
      {
        OFFSET 0 22.1894 -2.19456
        CHANNELS 3 Zrotation Xrotation Yrotation
        JOINT head
        {
          OFFSET -0.24384 7.07133 1.2192
          CHANNELS 3 Zrotation Xrotation Yrotation
          JOINT leftEye
          {
            OFFSET 4.14528 8.04674 8.04672
            CHANNELS 3 Zrotation Xrotation Yrotation
            End Site
            {
              OFFSET 1 0 0
            }
          }
          JOINT rightEye
          {
            OFFSET -3.6576 8.04674 8.04672
            CHANNELS 3 Zrotation Xrotation Yrotation
            End Site
            {
              OFFSET 1 0 0
            }
          }
        }
      }
      JOINT rCollar
      {
        OFFSET -2.68224 19.2634 -4.8768
        CHANNELS 3 Zrotation Xrotation Yrotation
        JOINT rShldr
        {
          OFFSET -8.77824 -1.95073 1.46304
          CHANNELS 3 Zrotation Xrotation Yrotation
          JOINT rForeArm
          {
            OFFSET -28.1742 -1.7115 0.48768
            CHANNELS 3 Zrotation Xrotation Yrotation
            JOINT rHand
            {
              OFFSET -22.5879 0.773209 7.07136
              CHANNELS 3 Zrotation Xrotation Yrotation
              JOINT rThumb1
              {
                OFFSET -1.2192 -0.487915 3.41376
                CHANNELS 3 Zrotation Xrotation Yrotation
                JOINT rThumb2
                {
                  OFFSET -3.37035 -0.52449 3.41376
                  CHANNELS 3 Zrotation Xrotation Yrotation
                  End Site
                  {
                    OFFSET -1.78271 -1.18214 1.43049
                  }
                }
              }
              JOINT rIndex1
              {
                OFFSET -7.75947 0.938293 5.60832
                CHANNELS 3 Zrotation Xrotation Yrotation
                JOINT rIndex2
                {
                  OFFSET -2.54057 -0.884171 1.56538
                  CHANNELS 3 Zrotation Xrotation Yrotation
                  End Site
                  {
                    OFFSET -1.62519 -0.234802 1.16502
                  }
                }
              }
              JOINT rMid1
              {
                OFFSET -8.24714 1.18213 3.41376
                CHANNELS 3 Zrotation Xrotation Yrotation
                JOINT rMid2
                {
                  OFFSET -3.10165 -0.590103 1.0647
                  CHANNELS 3 Zrotation Xrotation Yrotation
                  End Site
                  {
                    OFFSET -2.48547 -0.328903 0.83742
                  }
                }
              }
              JOINT rRing1
              {
                OFFSET -8.82822 0.546677 1.51678
                CHANNELS 3 Zrotation Xrotation Yrotation
                JOINT rRing2
                {
                  OFFSET -2.60934 -0.819778 -0.0198488
                  CHANNELS 3 Zrotation Xrotation Yrotation
                  End Site
                  {
                    OFFSET -2.33842 -0.294052 0.168128
                  }
                }
              }
              JOINT rPinky1
              {
                OFFSET -8.27202 -0.0477905 -0.4584
                CHANNELS 3 Zrotation Xrotation Yrotation
                JOINT rPinky2
                {
                  OFFSET -1.82734 -0.647385 -0.700984
                  CHANNELS 3 Zrotation Xrotation Yrotation
                  End Site
                  {
                    OFFSET -1.69225 -0.51767 -0.607171
                  }
                }
              }
            }
          }
        }
      }
      JOINT lCollar
      {
        OFFSET 2.68224 19.2634 -4.8768
        CHANNELS 3 Zrotation Xrotation Yrotation
        JOINT lShldr
        {
          OFFSET 8.77824 -1.95073 1.46304
          CHANNELS 3 Zrotation Xrotation Yrotation
          JOINT lForeArm
          {
            OFFSET 28.1742 -1.7115 0.48768
            CHANNELS 3 Zrotation Xrotation Yrotation
            JOINT lHand
            {
              OFFSET 22.5879 0.773209 7.07136
              CHANNELS 3 Zrotation Xrotation Yrotation
              JOINT lThumb1
              {
                OFFSET 1.2192 -0.487915 3.41376
                CHANNELS 3 Zrotation Xrotation Yrotation
                JOINT lThumb2
                {
                  OFFSET 3.37035 -0.52449 3.41376
                  CHANNELS 3 Zrotation Xrotation Yrotation
                  End Site
                  {
                    OFFSET 1.78271 -1.18214 1.43049
                  }
                }
              }
              JOINT lIndex1
              {
                OFFSET 7.75947 0.938293 5.60832
                CHANNELS 3 Zrotation Xrotation Yrotation
                JOINT lIndex2
                {
                  OFFSET 2.54057 -0.884171 1.56538
                  CHANNELS 3 Zrotation Xrotation Yrotation
                  End Site
                  {
                    OFFSET 1.62519 -0.234802 1.16502
                  }
                }
              }
              JOINT lMid1
              {
                OFFSET 8.24714 1.18213 3.41376
                CHANNELS 3 Zrotation Xrotation Yrotation
                JOINT lMid2
                {
                  OFFSET 3.10165 -0.590103 1.0647
                  CHANNELS 3 Zrotation Xrotation Yrotation
                  End Site
                  {
                    OFFSET 2.48547 -0.328903 0.83742
                  }
                }
              }
              JOINT lRing1
              {
                OFFSET 8.82822 0.546677 1.51678
                CHANNELS 3 Zrotation Xrotation Yrotation
                JOINT lRing2
                {
                  OFFSET 2.60934 -0.819778 -0.0198488
                  CHANNELS 3 Zrotation Xrotation Yrotation
                  End Site
                  {
                    OFFSET 2.33842 -0.294052 0.168128
                  }
                }
              }
              JOINT lPinky1
              {
                OFFSET 8.27202 -0.0477905 -0.4584
                CHANNELS 3 Zrotation Xrotation Yrotation
                JOINT lPinky2
                {
                  OFFSET 1.82734 -0.647385 -0.700984
                  CHANNELS 3 Zrotation Xrotation Yrotation
                  End Site
                  {
                    OFFSET 1.69225 -0.51767 -0.607171
                  }
                }
              }
            }
          }
        }
      }
    }
  }
  JOINT rButtock
  {
    OFFSET -8.77824 4.35084 1.2192
    CHANNELS 3 Zrotation Xrotation Yrotation
    JOINT rThigh
    {
      OFFSET 0 -1.70687 -2.19456
      CHANNELS 3 Zrotation Xrotation Yrotation
      JOINT rShin
      {
        OFFSET 0 -36.8199 0.73152
        CHANNELS 3 Zrotation Xrotation Yrotation
        JOINT rFoot
        {
          OFFSET 0.73152 -45.1104 -5.12064
          CHANNELS 3 Zrotation Xrotation Yrotation
          End Site
          {
            OFFSET -1.1221 -3.69964 12.103
          }
        }
      }
    }
  }
  JOINT lButtock
  {
    OFFSET 8.77824 4.35084 1.2192
    CHANNELS 3 Zrotation Xrotation Yrotation
    JOINT lThigh
    {
      OFFSET 0 -1.70687 -2.19456
      CHANNELS 3 Zrotation Xrotation Yrotation
      JOINT lShin
      {
        OFFSET 0 -36.8199 0.73152
        CHANNELS 3 Zrotation Xrotation Yrotation
        JOINT lFoot
        {
          OFFSET -0.73152 -45.1104 -5.12064
          CHANNELS 3 Zrotation Xrotation Yrotation
          End Site
          {
            OFFSET 1.1221 -3.69964 12.103
          }
        }
      }
    }
  }
}
MOTION
Frames:	4
Frame Time:	0.03333
-1.2362482957541943 30.222707986831665 2.375797927379608 -3.0216193397529882 2.992960719769261 1.6705417544668817 -1.0413318147989077 8.537044905862475 1.5361751781849233 1.0132423416721128 -4.896364540496211 0.03771761193770624 -2.6285069482992585 8.552134501286325 -2.592553899725369 4.165070273328109 -13.581539173983337 -2.0712668186374144 -0.45199731991826125 -0.05955324646656098 -0.2830739084587257 0.11274177048287501 -0.3377117666004047 -0.2503764055196995 0.8281203095026722 0.31237229838818625 0.3867439337437808 24.86846946611172 15.550979824926909 8.522718584078373 -13.156556266088682 -15.740893234799113 34.37238058295557 -2.0128108580692716 -7.202548885447044 -4.209432778874165 0.280192449083053 -0.15843912444441888 -1.1163694469594312 -0.5974910747709639 -0.42254997316795617 1.230289211630722 -0.21867516304435633 -1.3415524596017008 -0.12439436669160765 4.9053560576517095 2.6300236771818244 -0.33979054534646863 0.15827531996625757 0.3757749701018577 -0.34643119676701356 1.4233005391783504 0.34518159231401857 -0.06647066729083685 0.9802762201996347 0.038201394770226764 -0.6557948501866621 5.310986478306781 1.3383455790646739 -0.49188300998934403 -0.515437450950662 -0.11093538555060498 0.5644757545921205 2.038351496696888 0.37270186522302795 -0.02610223492386486 1.0468798493956621 -0.33887484643043736 -0.9477577962829098 -28.643180341108437 16.087745608777993 -12.898809686248141 11.904124114777307 -16.006032640642545 -32.40863972487437 3.125030111334274 -6.415053260467138 3.607830997439911 -0.4934889582179433 -0.19750983420930165 -0.6103501865439822 -0.20792661974551158 0.12151620234860097 0.17160215295507636 -0.5253587809677814 -0.25527055622513095 0.5353335785594975 -3.289885051245583 2.393710017513373 -0.7871363463573925 -0.7255338030159897 -0.4221737257942237 0.4264765048474937 -2.4302991274537193 1.000594005268013 -0.6485799292673072 -0.7562510847042411 0.7274283800978749 -0.9207940237086978 -5.0171696694594035 -0.7337966243644126 0.4978406424928877 -0.6242899089488907 -0.4967380471896066 -0.6606190448139538 -0.8672715407945671 -0.8438229144045315 -0.7267223626532777 0.6912898491993374 -0.9543092283574214 0.6423536782303116 -15.813540834358662 -19.57208123649537 -13.442128182834207 -3.0134786080359794 32.517765657243665 3.9596638599842 -1.639808464522763 -5.580422073138151 -4.814593515752819 0.28277399378505336 0.272737350964837 -1.0724543188040112 19.981124190414512 -18.1992388265322 16.991914098273234 3.6694901032853777 33.64299492677366 -2.464071424691671 2.595789915288074 -5.928237503790003 7.071031031657509
-2.1750283427536488 36.50687336921692 4.1680896654725075 -3.775626974119145 3.3309061001836215 1.831668691751833 -1.2315958054746041 10.067876421517216 2.3947450046160412 1.3060828603550014 -6.033059990095365 0.37431258924796096 -3.229935840570146 10.134047294196298 -2.592223702767681 5.124763931907322 -16.092704326115424 -2.7671849747730817 -0.34281095638306874 -0.018623337865259573 -0.1978675920475075 0.1582120473349424 -0.3276035401960354 -0.14690981848629023 0.5637563435734477 0.3064957210201837 0.1233727464825883 30.123552126722416 18.981058137425 10.192267826681487 -15.839794373980897 -18.94536869146439 41.50663611443895 -2.7288556606982626 -8.127155008486255 -4.441265194116853 0.18893130337475075 -0.16880859224432793 -0.6919465078550107 -0.32782880303651357 -0.2170899855277448 0.8300231041559026 -0.09319926524614626 -0.8204142552933111 -0.15597524042304256 5.706924860529603 3.3319314823327697 -0.1757912467112627 0.05270390075036046 0.18536727864932637 -0.26120993931698594 1.8228914717815434 0.496179732585811 -0.04102682525036419 0.6868950493552574 -0.05323410752489592 -0.5406286827135499 6.430202193159403 0.976001375552853 -0.579446782200848 -0.2514760392956451 -0.07528494637345896 0.41201579375538666 2.039906858836947 0.12603385221624872 0.010362010620717586 0.8116706526603428 -0.23045359748441854 -0.7583867461194865 -35.13323292064372 19.685091838955113 -15.769651746299452 14.465690086568562 -18.647635622901657 -39.33346799602682 3.654633588066954 -7.9789894223684605 3.5812884554384183 -0.32141904402642685 -0.23134813882227864 -0.6226247835344356 -0.11410447326357188 0.15283530107596718 -0.015858258509741558 -0.6023027295978263 -0.29678706068226013 0.381955917774749 -4.451955720828392 3.136266199405768 -0.7855174314415408 -0.5509133467780024 -0.4249434475439432 0.20781701655367402 -2.5437167664993083 0.9141657520060235 -0.6723382086866677 -0.5349982589599322 0.5630389602671849 -0.7008305562527875 -6.313029017287365 -0.24664197291056858 0.4327906678896267 -0.4659563055910632 -0.519191066786407 -0.6549331257733297 -1.1096833320922235 -0.8256010369159953 -0.5948573965156893 0.49554932746975994 -0.7174108938238463 0.4909198999555194 -19.605424512476084 -23.22257146105707 -16.70938673835024 -3.709363893886266 39.4973310644046 4.4826971216221505 -2.324341335642254 -6.635731549908372 -6.011880427252802 0.39799197464632247 0.2938361254761237 -0.7527760658814384 24.1538694619356 -21.695856841924552 20.12972861618648 4.069292665031136 40.246520854084956 -3.500109095831878 3.2890257280706305 -6.977676006081775 8.725754494893465
-2.8934878297150135 41.418227553367615 5.418099462985992 -4.3463960009794915 3.5279502275493195 1.9638480066738007 -1.4798497030292959 11.2919035236178 2.9213047782998345 1.6654947782787712 -6.972657524589108 0.6632248153431666 -3.6992923530682593 11.43616821794587 -2.589576577577478 5.886038887550372 -18.11843256600907 -3.197162458498309 -0.1739664656249586 -0.08400743144889582 -0.15060801907630836 0.11922916953391774 -0.24921297884412302 -0.11728814182959119 0.3842431240122041 0.26289648911387664 -0.044846915368597945 34.337765184241945 21.794071547094752 11.482632287322174 -17.941901204268213 -21.48717065711857 47.233387733468625 -3.302178751421371 -8.925977221544157 -4.58559093326063 0.1257066968271757 -0.17647710709368042 -0.4063081034867832 -0.13568875149488488 -0.08201349645892811 0.5350643196958109 -0.056230546198334896 -0.42351612477039563 -0.19093663090681062 6.204872118006567 3.921708925653262 -0.00769319424381444 0.0069309878211233295 0.09296847955739387 -0.18855553624869428 2.154276668941518 0.6701138615339178 -0.08515671749845624 0.4246505231419996 -0.15738264625824863 -0.41687654056690854 7.360316863764229 0.7849317427202123 -0.5583035047382504 -0.031166153182768185 -0.09694961272965183 0.191179876354713 2.0971912285190206 -0.10872866081952227 0.06016481520154158 0.6133786283889424 -0.12533477168252735 -0.6016665081488102 -40.2620219684063 22.49771422029488 -18.069705996470198 16.551798906272413 -20.759284227459478 -44.775827613490094 4.018061123614163 -9.163589257485146 3.543223811193937 -0.18541909203748327 -0.2443166937045759 -0.5855219686633099 -0.07838778658756204 0.04493974991241458 -0.11529972968789767 -0.5640539904108722 -0.2524692715309266 0.2830816724628213 -5.348336940896172 3.7540666282303534 -0.7328658510074397 -0.42076201107014666 -0.41516307021973453 0.003848117906214606 -2.6250873714026093 0.8439451107576513 -0.6237969613898862 -0.3459748013922392 0.36031392978103466 -0.5129490209369559 -7.262232785961907 0.14174969060962495 0.38409808921404714 -0.3360218283893554 -0.47237534938955295 -0.5354600437808485 -1.3307050519826626 -0.7959216238164686 -0.4633377818180096 0.3136895110417938 -0.5211123242947376 0.32068837386779414 -22.584549830307836 -26.163592861056614 -19.33257723815429 -4.25786906537331 44.960437381471785 4.848674452163889 -2.868538578753724 -7.499429887910818 -7.046708728023094 0.390596160435668 0.2806225375573522 -0.5164687027936281 27.314556575831926 -24.479859023094676 22.608083247093116 4.378311767423669 45.482755607681 -4.275693297786105 3.7450503516391134 -7.707224733030116 10.00863477575111
-3.444103617221117 45.29358148574829 6.228984706103802 -4.788648615303702 3.6395619218896744 2.075595877910733 -1.7480560772534757 12.27247707048974 3.250393964681627 2.052640038997143 -7.741811103439768 0.8970279536048152 -4.084229434972308 12.494553841163535 -2.5644026347309268 6.481725298276571 -19.753637909918066 -3.45645650307268 0.006610129012691403 -0.19568363906039593 -0.13763554217132362 0.04619806552464398 -0.1479225541133033 -0.12978247881224858 0.2650618191633294 0.20922376871843218 -0.15629532549910757 37.71240455879433 24.06675893680855 12.473360617942632 -19.592462520978692 -23.517700519998733 51.799242835122506 -3.7730067427987986 -9.606874511034498 -4.681345489669155 0.07619588283336974 -0.18147975375325195 -0.20388893740940267 -0.00343825319516095 0.008628983520959078 0.3333203818509096 -0.056168967774099 -0.1233047647560055 -0.23648502804751004 6.498573240524877 4.399610004803061 0.14724697903528028 0.0017462072304225177 0.02748622868486514 -0.10930122277103975 2.427870141430134 0.8424939090024351 -0.15577166876926443 0.20748887398882251 -0.2469323626719999 -0.29371579675285514 8.122013583588528 0.6725356438423633 -0.49823946150739296 0.16532131376557363 -0.14031320310959342 -0.05774999648439828 2.168824118099999 -0.32086787977691855 0.11842515488298674 0.41100524592334214 -0.01557923460997596 -0.4705835986711882 -44.321493675184605 24.69251354780844 -19.930430526394677 18.235703498963602 -22.44572623542733 -49.06390916688331 4.261745197727293 -10.073011016225772 3.5142670107642564 -0.05548216023654248 -0.25488683833199377 -0.523399370449634 -0.07608713341517845 -0.11854397616216117 -0.14453229900531755 -0.5079260571326462 -0.1758031728618838 0.23069903072728942 -6.0326262730830695 4.252672998962223 -0.6309776246416852 -0.3190263433828068 -0.3992358961684846 -0.15608524382127678 -2.666922920399172 0.7793212759255757 -0.5449162272433197 -0.17472904557361996 0.16216747391632025 -0.36001937787307786 -7.966295515795992 0.45274207734205707 0.3252120935324582 -0.26002215341206486 -0.392639534255839 -0.37942618646090553 -1.5259393926617186 -0.7404379694760451 -0.3570825032516782 0.1379316682244407 -0.36830674521383056 0.15584490653985694 -24.910755167263268 -28.5002859534826 -21.42634440746502 -4.678858020150801 49.25545157687257 5.156573403532541 -3.2946356612567382 -8.18889991858317 -7.935413669237426 0.31856429175762596 0.26276127271265154 -0.3379195537615612 29.735542740352333 -26.70806822093335 24.552487839634004 4.609935435009849 49.63402164180969 -4.859335523684633 4.049862057502919 -8.200290966571458 11.018139296399934
